<svg xmlns="http://www.w3.org/2000/svg" viewBox="0 0 76.04 76.04"><defs><style>.cls-1{fill:#0d594d;}.cls-2{fill:#fff;}</style></defs><g id="Layer_2" data-name="Layer 2"><g id="Layer_1-2" data-name="Layer 1"><rect class="cls-1" width="76.04" height="76.04" rx="3.06"/><path class="cls-2" d="M20.57,14.43H10.84L7.43,61.61h5.11l.6-4a2.91,2.91,0,0,1,.73-1.55l4-4.44.56,10H24ZM16,45.68l-2.53,3,2-23.9L17,42.6A4.26,4.26,0,0,1,16,45.68Z"/><rect class="cls-2" x="28.89" y="14.43" width="6.08" height="47.17"/><rect class="cls-2" x="41.07" y="14.43" width="6.08" height="47.17"/><path class="cls-2" d="M52.07,43.86v12.4c0,2.91,2.67,5.35,7,5.35H63c2.43,0,5.59-2,5.59-4.87V14.43H62.77V55.28c0,2.19-1.84,1.94-2.36,1.95-1,0-2.5,0-2.5-2.95V43.86Z"/></g></g></svg>