<svg xmlns="http://www.w3.org/2000/svg" viewBox="0 0 76.04 76.04"><defs><style>.cls-1{fill:#fff;}</style></defs><g id="Layer_2" data-name="Layer 2"><g id="Layer_1-2" data-name="Layer 1"><path class="cls-1" d="M15.46,24.82,17,42.6a4.27,4.27,0,0,1-1,3.08l-2.53,3Z"/><path class="cls-1" d="M73,0H3.06A3.06,3.06,0,0,0,0,3.06V73A3.07,3.07,0,0,0,3.06,76H73A3.07,3.07,0,0,0,76,73V3.06A3.06,3.06,0,0,0,73,0ZM18.45,61.6l-.56-10-4,4.44a3,3,0,0,0-.73,1.56l-.6,4H7.43l3.41-47.17h9.73L24,61.6ZM35,61.6H28.89V14.43H35Zm12.19,0H41.07V14.43h6.08ZM68.6,56.74c0,2.92-3.16,4.86-5.59,4.86H59.12c-4.38,0-7-2.43-7-5.35V43.85h5.84V54.28c0,3,1.45,3,2.5,2.95.52,0,2.36.24,2.36-1.95V14.43H68.6Z"/></g></g></svg>