<svg xmlns="http://www.w3.org/2000/svg" viewBox="0 0 81.08 81.08"><defs><style>.cls-1{fill:#fdb619;}</style></defs><g id="Layer_2" data-name="Layer 2"><g id="Layer_1-2" data-name="Layer 1"><path class="cls-1" d="M40.55,0A40.54,40.54,0,1,0,81.08,40.55v0A40.55,40.55,0,0,0,40.55,0ZM49.9,51.47a24.6,24.6,0,0,1-5.1,2.43l-4.44,4.42.25.26c1.23.88,4.59,1.11,5.78,1.12h.3l4.53,4.53a.7.7,0,0,1-.51,1.2.7.7,0,0,1-.51-.2l-4.13-4.12c-1.11,0-4.68-.23-6.37-1.46l-.35-.33L33.8,64.86a.6.6,0,0,1-.49.21.66.66,0,0,1-.51-.21.7.7,0,0,1,0-1h0L44,52.63h.16a22.2,22.2,0,0,0,5-2.34,22.44,22.44,0,0,0,4.62-3.91L61,39.13a2.29,2.29,0,0,0-2.85-3.54h0L57,36.71a.72.72,0,0,1-1,0,.7.7,0,0,1,0-1h0l2.82-2.84a2.28,2.28,0,0,0,0-3.22,2.33,2.33,0,0,0-3.22,0l-3,3a.72.72,0,0,1-1,0h0a.72.72,0,0,1,0-1l3.85-3.85a2.29,2.29,0,0,0,0-3.23,2.31,2.31,0,0,0-3.22,0L48,28.82h0l-.39.37a.69.69,0,0,1-.49.21.66.66,0,0,1-.51-.21.72.72,0,0,1,0-1L51.9,22.9a2.29,2.29,0,0,0,.68-1.62,2.42,2.42,0,0,0-.68-1.61,2.31,2.31,0,0,0-3.22,0l-6.54,6.54,1,1a3.71,3.71,0,0,1-2.63,6.34,3.05,3.05,0,0,1-.6-.06,3.05,3.05,0,0,1,.06.6,3.76,3.76,0,0,1-1.08,2.63,3.68,3.68,0,0,1-2.62,1.08,3.05,3.05,0,0,1-.6-.06,3.05,3.05,0,0,1,.06.6A3.75,3.75,0,0,1,32,42.06a5.61,5.61,0,0,1-.59-.06,3.68,3.68,0,0,1-5.52,3.78l-9.78,9.79a.71.71,0,0,1-1-1l9.69-9.71-2.37-2.37a3.71,3.71,0,0,1,0-5.25h0a3.61,3.61,0,0,1,2.25-1,3.73,3.73,0,0,1,.12-5.1,3.68,3.68,0,0,1,2.33-1A3.66,3.66,0,0,1,30,24.39,3.73,3.73,0,0,1,30.68,20,3.81,3.81,0,0,1,35,19.38v-3.6h9.36a4.82,4.82,0,0,1,4.17,2.35,3.8,3.8,0,0,1,4.44.59A3.66,3.66,0,0,1,54,21.33a4,4,0,0,1-.22,1.23,3.63,3.63,0,0,1,2.73,1,3.69,3.69,0,0,1,.76,4.12,3.59,3.59,0,0,1,2.6,1,3.7,3.7,0,0,1,.06,5.19,3.6,3.6,0,0,1,2.11,1,3.69,3.69,0,0,1,0,5.22l0,0-7.21,7.23a24.51,24.51,0,0,1-4.94,4.08Zm16.11-1a.72.72,0,0,1-1,0l-4.32-4.32a.69.69,0,0,1,0-1l0,0a.72.72,0,0,1,1,0L66,49.47a.74.74,0,0,1,0,.94ZM38.53,34a2.21,2.21,0,0,1-.68,1.61,2.31,2.31,0,0,1-3.22,0l-6.09-6.08a2.28,2.28,0,0,1,1.62-3.9,2.29,2.29,0,0,1,1.62.68l6.07,6.07A2.29,2.29,0,0,1,38.53,34Zm3.57-2.64a2.32,2.32,0,0,1-3.23,0l-7.21-7.21a2.27,2.27,0,0,1,0-3.21l0,0a2.31,2.31,0,0,1,3.22,0l5.7,5.69h0l1.52,1.52a2.26,2.26,0,0,1,0,3.18ZM29.36,44.11a2.33,2.33,0,0,1-3.22,0l-2.73-2.73a2.28,2.28,0,0,1,0-3.22,2.32,2.32,0,0,1,3.24,0l2.71,2.71a2.29,2.29,0,0,1,0,3.19Zm5-5.91a2.29,2.29,0,0,1-3.9,1.62l-4.59-4.61a2.26,2.26,0,0,1,0-3.2l0,0a2.21,2.21,0,0,1,1.61-.66,2.23,2.23,0,0,1,1.62.66l4.59,4.59A2.29,2.29,0,0,1,34.31,38.2Zm13-19.34L41.09,25l-2-2H42a.72.72,0,1,0,0-1.44H39a2.67,2.67,0,0,1-2.64-2.65V17h8A3.36,3.36,0,0,1,47.31,18.86Z"/></g></g></svg>