<svg xmlns="http://www.w3.org/2000/svg" viewBox="0 0 80.7 80.71"><defs><style>.cls-1{fill:#fdb619;}</style></defs><g id="Layer_2" data-name="Layer 2"><g id="Layer_1-2" data-name="Layer 1"><path class="cls-1" d="M51.82,42.11c.51.53.94,1,1.19,1.29l-8.33-4.25a3.78,3.78,0,0,1-1.54-4L48,37.63h0A46.87,46.87,0,0,0,51.82,42.11ZM32.73,43h0l4.83,2.47a3.77,3.77,0,0,0-.1-2A3.91,3.91,0,0,0,36,41.55l-8.33-4.26c.24.3.68.77,1.19,1.3A44.74,44.74,0,0,1,32.73,43ZM53.8,56.54a8.68,8.68,0,0,1-2.33-2.23c-1.2-1.37-2.82-3.25-4.08-3.49a4.51,4.51,0,0,0-2.13,0l7.5,8.72L63.13,65a.92.92,0,0,1,.25.23l3.81,5.49c.63-.55,1.26-1.14,1.86-1.74A40.53,40.53,0,0,0,14.72,9l3.79,5.47,10.27,5.42a.58.58,0,0,1,.23.18l8.28,9.6a.76.76,0,0,1-.11,1.08l-.07.05a5.56,5.56,0,0,1-4,.57c-1.78-.34-3.45-2.28-4.93-4a10.34,10.34,0,0,0-1.79-1.83,2.69,2.69,0,0,0-1-.22l1.95,10.1,9.48,4.83a5.34,5.34,0,0,1,1.9,6.65.75.75,0,0,1-.44.38.73.73,0,0,1-.58,0l-3.41-1.74a11.21,11.21,0,0,1,.82,2,7.1,7.1,0,0,1-.62,3.93.75.75,0,0,1-.55.47.76.76,0,0,1-.69-.2h0l-10.39-11a1.74,1.74,0,0,1-.11-.18l-9-17.35L8.27,17.77a.75.75,0,0,1,1.05-1.08v0l5.52,5.51a.59.59,0,0,1,.13.18l9,17.38,9.45,10a3.88,3.88,0,0,0,.19-1.85c-.79-3-3.95-6.31-5.83-8.29A15.94,15.94,0,0,1,26.35,38a.42.42,0,0,1-.12-.26l-2.53-13a.84.84,0,0,1,.13-.6.76.76,0,0,1,.51-.29,4.67,4.67,0,0,1,2.56.28,8.53,8.53,0,0,1,2.33,2.23c1.19,1.38,2.8,3.24,4.07,3.5a4.6,4.6,0,0,0,2.15,0l-7.52-8.71L17.61,15.69a.67.67,0,0,1-.26-.24L13.54,10c-.63.55-1.26,1.13-1.87,1.75A40.53,40.53,0,0,0,66,71.72l-3.79-5.45L51.92,60.84a.62.62,0,0,1-.18-.14h0l-8.29-9.6a.75.75,0,0,1-.17-.61.77.77,0,0,1,.35-.52,5.56,5.56,0,0,1,4-.58c1.79.34,3.45,2.28,4.93,4a11,11,0,0,0,1.79,1.82,2.9,2.9,0,0,0,1,.22l-2-10.09-9.47-4.85a6.38,6.38,0,0,1-.8-.66A5.2,5.2,0,0,1,42,33.88a.76.76,0,0,1,.44-.37.73.73,0,0,1,.58,0l3.4,1.75a12,12,0,0,1-.81-2,7,7,0,0,1,.62-3.94.72.72,0,0,1,.55-.46.79.79,0,0,1,.7.21l10.38,11a.66.66,0,0,1,.12.17L67,57.6,72.44,63a.73.73,0,0,1,0,1v0a.75.75,0,0,1-1.06,0l-5.52-5.51a.76.76,0,0,1-.12-.19L56.74,41,47.29,31a3.88,3.88,0,0,0-.19,1.85c.8,3,3.95,6.32,5.82,8.28a16.28,16.28,0,0,1,1.46,1.64.81.81,0,0,1,.11.27l2.52,13a.76.76,0,0,1-.63.88,4.86,4.86,0,0,1-2.58-.38ZM37.49,43.43a3.91,3.91,0,0,0-1.44-1.91l-8.33-4.26c.24.3.68.77,1.19,1.3A44.79,44.79,0,0,1,32.73,43h0l4.83,2.47a3.85,3.85,0,0,0-.07-2Z"/></g></g></svg>