<svg xmlns="http://www.w3.org/2000/svg" viewBox="0 0 81.08 81.08"><defs><style>.cls-1{fill:#fdb619;}</style></defs><g id="Layer_2" data-name="Layer 2"><g id="Layer_1-2" data-name="Layer 1"><path class="cls-1" d="M52.3,44.28l1,1.86a.76.76,0,0,1-.31,1l-.24.13a.63.63,0,0,0-.34.41.71.71,0,0,0,.48.89.65.65,0,0,0,.53,0l9.69-5.17a.71.71,0,1,0-.61-1.28l-.06,0-.2.11a.89.89,0,0,1-.6.07.72.72,0,0,1-.46-.36l-1-1.87a.76.76,0,0,1,.31-1l1.13-.6-.26-2.34-.46.25a.76.76,0,0,1-1-.32l-2.76-5.35a.76.76,0,0,1,.25-1l.56-.37-1.77-1.93-1.45.78a.76.76,0,0,1-1-.31L52.3,25.22a.75.75,0,0,1-.06-.57.78.78,0,0,1,.37-.45l.26-.14a.7.7,0,0,0-.13-1.3.68.68,0,0,0-.54,0L42.51,28a.73.73,0,0,0-.31,1l0,0a.73.73,0,0,0,1,.31l0,0,.25-.13a.75.75,0,0,1,.57-.06.73.73,0,0,1,.44.37l1.43,2.69a.76.76,0,0,1-.31,1l-2.16,1.15.06,2.77v0c.31-.22.62-.44.92-.67a.74.74,0,0,1,.85,1.21c-.46.34-.94.68-1.43,1a.27.27,0,0,1-.08.07c-2.43,1.72-5,3.34-7.5,4.8a93.78,93.78,0,0,1-19.33,8.35,2.52,2.52,0,0,0-.29,3A2.47,2.47,0,0,0,19.42,56,108.4,108.4,0,0,1,37.58,45.23C40.06,44.07,42.65,43,45.27,42l1.89-.69a.75.75,0,1,1,.5,1.42l-1.26.46.05.22,2,2.08L51.27,44a.74.74,0,0,1,1,.28Z"/><path class="cls-1" d="M40.54,0A40.54,40.54,0,1,0,81.08,40.54,40.54,40.54,0,0,0,40.54,0Zm7.29,46.92L45.3,44.28a.72.72,0,0,1-.2-.36l-.05-.21c-2.3.88-4.57,1.83-6.76,2.86a105.58,105.58,0,0,0-18,10.67.53.53,0,0,1-.21.11,4,4,0,0,1-4-6.68.61.61,0,0,1,.31-.18,92.14,92.14,0,0,0,19.2-8.27c2.27-1.31,4.52-2.75,6.71-4.27l-.13-.15a.71.71,0,0,1-.17-.46l-.07-3.5a.74.74,0,0,1,.39-.68l1.91-1-.75-1.42a2.22,2.22,0,0,1-1.25,0,2.16,2.16,0,0,1-1.3-1.07,2.23,2.23,0,0,1,.9-3l9.7-5.17A2.21,2.21,0,0,1,54,25.15l.76,1.4,1.31-.7A.76.76,0,0,1,57,26l2.75,3a.82.82,0,0,1,.19.6.78.78,0,0,1-.33.53l-.73.49L61,34.71l.76-.41a.73.73,0,0,1,.7,0,.71.71,0,0,1,.39.58l.44,3.94a.73.73,0,0,1-.39.74l-.91.49.31.59a2.21,2.21,0,0,1,1.65,4.08l-9.69,5.17a2.18,2.18,0,0,1-1,.25,2.3,2.3,0,0,1-.64-.09,2.23,2.23,0,0,1-1.48-2.76,2.16,2.16,0,0,1,.68-1l-.32-.59-2.65,1.42a.76.76,0,0,1-1-.2Zm3,12.94v-2a2.46,2.46,0,0,1,2.43-2.49h0l10.47-.11a2.45,2.45,0,0,1,1.75.7,2.41,2.41,0,0,1,.74,1.73v2Z"/></g></g></svg>