<svg xmlns="http://www.w3.org/2000/svg" viewBox="0 0 81.08 81.08"><defs><style>.cls-1{fill:#fdb619;}</style></defs><g id="Layer_2" data-name="Layer 2"><g id="Layer_1-2" data-name="Layer 1"><path class="cls-1" d="M53.11,31,45.48,38.6A5.45,5.45,0,0,0,53.11,31Z"/><path class="cls-1" d="M49.64,20.22a14.36,14.36,0,0,0-5.85,1.24h-.5a.21.21,0,0,1-.1-.06l-.13-.08h0l-3-3A4.43,4.43,0,0,0,36.91,17a4.47,4.47,0,0,0-3.2,7.6l0,0,2.81,2.86h0l.08.12a.64.64,0,0,1,.06.1.29.29,0,0,1,0,.13.29.29,0,0,1,0,.13v.11a.33.33,0,0,1,0,.14h0a14.08,14.08,0,0,0-1.47,6.34,14.31,14.31,0,0,0,3.24,9.08L58.68,23.42A14.38,14.38,0,0,0,49.64,20.22Z"/><path class="cls-1" d="M41.7,63.76a18.86,18.86,0,0,0-17-.38l-1.47.7H42.3Z"/><path class="cls-1" d="M40.55,0A40.54,40.54,0,1,0,81.08,40.55h0A40.54,40.54,0,0,0,40.55,0ZM51.16,50a.67.67,0,0,1-.67.67h0a.69.69,0,0,1-.68-.67V43.31a.69.69,0,0,1,.68-.67.67.67,0,0,1,.67.67h0Zm-2.42-9a6.86,6.86,0,0,1-4.24-1.47l-5.58,5.59h0l-.12.08-.08,0h-.25a.75.75,0,0,1-.26,0h-.06L38,45.1h0a15.68,15.68,0,0,1-2.62-17l-.94-.94L21.8,30.42a6,6,0,0,0-4.37,7.28l0,.1,6.33,24.53.4-.19a20.19,20.19,0,0,1,18.2.41l3,1.58a.67.67,0,0,1,.33.76.66.66,0,0,1-.65.51H20.3A.67.67,0,0,1,20,64.12l2.49-1.2L16.1,38.13a7.4,7.4,0,0,1,5.31-9l11.86-3.06-.51-.52A5.81,5.81,0,1,1,41,17.33l2.72,2.72a15.41,15.41,0,0,1,6-1.19,15.7,15.7,0,0,1,10.52,4h0a.36.36,0,0,1,.07.1l.07.11a.29.29,0,0,1,0,.13v.37a.75.75,0,0,1-.07.12v.1h0l-6.1,6.1A6.84,6.84,0,0,1,53.61,39,6.74,6.74,0,0,1,48.74,41Zm12,5.15a.63.63,0,0,1-.47.2.67.67,0,0,1-.48-.2l-4.73-4.73a.67.67,0,0,1,.95-.94l4.73,4.73a.65.65,0,0,1,0,.93l0,0Zm3.86-9.54H57.91a.67.67,0,0,1,0-1.34h6.64a.67.67,0,0,1,0,1.34Z"/></g></g></svg>