<svg xmlns="http://www.w3.org/2000/svg" viewBox="0 0 81.08 81.08"><defs><style>.cls-1{fill:#fdb619;}</style></defs><g id="Layer_2" data-name="Layer 2"><g id="Layer_1-2" data-name="Layer 1"><path class="cls-1" d="M59.89,33.79a1,1,0,0,1-.57-.51,1,1,0,0,1,0-.76,5.28,5.28,0,0,0,.31-1.8,5.14,5.14,0,0,0-4.11-5,1,1,0,0,1-.78-.87,7.1,7.1,0,0,0-13.16-3.23v6.06H47.3V25.82a1,1,0,1,1,2-.44,1.09,1.09,0,0,1,0,.44v1.86h1.4a1,1,0,0,1,0,2h-10a1,1,0,0,1-1-1V21.86A7.11,7.11,0,0,0,26.39,24.8a1,1,0,0,1-.78.87,5.14,5.14,0,0,0-4.11,5,5.33,5.33,0,0,0,.1,1h8.87V27.05a1,1,0,1,1,2,0v4.67h1.64a1,1,0,0,1,1,1v2.79h2.74a1,1,0,1,1,.44,2,1.09,1.09,0,0,1-.44,0H35.11v2.32a1,1,0,0,1-2,0V33.69H27.46v4a1,1,0,0,1-2,0v-4H21.3a.34.34,0,0,1-.12.06,7.09,7.09,0,0,0,0,13.5,1,1,0,0,1,.58.51,1,1,0,0,1,0,.77A5.18,5.18,0,0,0,24.48,55h5.08V51.72h0V47.91h-3.1A1,1,0,1,1,26,46a1.09,1.09,0,0,1,.44,0h4.08a1,1,0,0,1,1,1v3.83H34.3a1,1,0,0,1,0,2H31.54v3.3a1,1,0,0,1-1,1h-4.1a7.1,7.1,0,0,0,12.9,2.61V55.07a1,1,0,0,1,1-1h3.57a1,1,0,0,1,0,2H41.3v3l.08.09a7.1,7.1,0,0,0,13.3-2.83,1,1,0,0,1,.78-.87,5.14,5.14,0,0,0,4.11-5,4.69,4.69,0,0,0-.15-1.29H40.05a1,1,0,0,1-1-1V43.55a1,1,0,0,1,2,0V47.2H48.3V38.33H45.1a1,1,0,0,1-.75-1.2,1,1,0,0,1,.75-.75h4.2a1,1,0,0,1,1,1V42h4.89V38.37a1,1,0,0,1,2,0V43a1,1,0,0,1-1,1H50.3v3.26H60.38a7.11,7.11,0,0,0-.48-13.34Z"/><path class="cls-1" d="M40.54,0A40.54,40.54,0,1,0,81.08,40.54,40.54,40.54,0,0,0,40.54,0ZM61.39,48.82a7.36,7.36,0,0,1,.17,1.55,7.12,7.12,0,0,1-5,6.78,9.06,9.06,0,0,1-16,4.2,9.07,9.07,0,0,1-16-4.2c-.2-.06-.38-.14-.56-.21a.14.14,0,0,1-.1,0,7.1,7.1,0,0,1-4.34-6.52,7.36,7.36,0,0,1,.17-1.55,9.07,9.07,0,0,1,0-16.56,7.27,7.27,0,0,1-.17-1.54,7.12,7.12,0,0,1,5-6.78,9.06,9.06,0,0,1,16-4.2,9.06,9.06,0,0,1,16,4.2,7.12,7.12,0,0,1,5,6.78,7.27,7.27,0,0,1-.17,1.54,9.07,9.07,0,0,1,0,16.56Z"/></g></g></svg>